<?xml version="1.0" encoding="UTF-8"?>
<svg width="200" height="50" viewBox="0 0 200 50" fill="none" xmlns="http://www.w3.org/2000/svg">
  <rect width="200" height="50" rx="8" fill="#2563EB"/>
  <path d="M30 15H40V35H30V15Z" fill="white"/>
  <path d="M45 15H55V35H45V15Z" fill="white"/>
  <path d="M60 15H70V35H60V15Z" fill="white"/>
  <path d="M75 15H85V35H75V15Z" fill="white"/>
  <path d="M90 15H100V35H90V15Z" fill="white"/>
  <path d="M105 15H115V35H105V15Z" fill="white"/>
  <path d="M120 15H130V35H120V15Z" fill="white"/>
  <path d="M135 15H145V35H135V15Z" fill="white"/>
  <path d="M30 20H145V25H30V20Z" fill="white"/>
  <path d="M30 30H145V35H30V30Z" fill="white"/>
  <text x="150" y="35" font-family="Arial" font-size="24" font-weight="bold" fill="white">XD</text>
</svg>
